<mxfile host="app.diagrams.net" modified="2022-11-11T16:41:14.094Z" agent="5.0 (Windows)" etag="I0wkCpzW7NiqnzGXfvjQ" version="20.5.3" type="github">
  <diagram name="Page-1" id="42789a77-a242-8287-6e28-9cd8cfd52e62">
    <mxGraphModel dx="1422" dy="793" grid="1" gridSize="10" guides="1" tooltips="1" connect="1" arrows="1" fold="1" page="1" pageScale="1" pageWidth="1100" pageHeight="850" background="none" math="0" shadow="0">
      <root>
        <mxCell id="0" />
        <mxCell id="1" parent="0" />
        <mxCell id="1ea317790d2ca983-12" style="edgeStyle=none;rounded=1;html=1;labelBackgroundColor=none;startArrow=none;startFill=0;startSize=5;endArrow=classicThin;endFill=1;endSize=5;jettySize=auto;orthogonalLoop=1;strokeColor=#B3B3B3;strokeWidth=1;fontFamily=Helvetica;fontSize=12;" parent="1" source="1ea317790d2ca983-1" target="1ea317790d2ca983-2" edge="1">
          <mxGeometry relative="1" as="geometry" />
        </mxCell>
        <mxCell id="HLH3AIwmKbXc0-JNvHGO-2" value="Liefert Optik" style="edgeLabel;html=1;align=center;verticalAlign=middle;resizable=0;points=[];fontFamily=Helvetica;fontSize=12;" parent="1ea317790d2ca983-12" vertex="1" connectable="0">
          <mxGeometry x="0.2455" y="1" relative="1" as="geometry">
            <mxPoint as="offset" />
          </mxGeometry>
        </mxCell>
        <mxCell id="1ea317790d2ca983-14" value="Wartung der Optik" style="edgeStyle=none;rounded=1;html=1;labelBackgroundColor=none;startArrow=none;startFill=0;startSize=5;endArrow=classicThin;endFill=1;endSize=5;jettySize=auto;orthogonalLoop=1;strokeColor=#B3B3B3;strokeWidth=1;fontFamily=Helvetica;fontSize=12;" parent="1" source="1ea317790d2ca983-1" target="1ea317790d2ca983-3" edge="1">
          <mxGeometry relative="1" as="geometry" />
        </mxCell>
        <mxCell id="1ea317790d2ca983-1" value="Carl Zeiss SMT" style="ellipse;whiteSpace=wrap;html=1;rounded=0;shadow=1;comic=0;labelBackgroundColor=none;strokeWidth=1;fontFamily=Helvetica;fontSize=12;align=center;" parent="1" vertex="1">
          <mxGeometry x="280" y="40" width="90" height="60" as="geometry" />
        </mxCell>
        <mxCell id="HLH3AIwmKbXc0-JNvHGO-1" style="edgeStyle=orthogonalEdgeStyle;rounded=0;orthogonalLoop=1;jettySize=auto;html=1;entryX=0;entryY=0.5;entryDx=0;entryDy=0;fontFamily=Helvetica;fontSize=12;" parent="1" source="1ea317790d2ca983-2" target="1ea317790d2ca983-3" edge="1">
          <mxGeometry relative="1" as="geometry" />
        </mxCell>
        <mxCell id="HLH3AIwmKbXc0-JNvHGO-5" value="Liefert EUV Anlage" style="edgeLabel;html=1;align=center;verticalAlign=middle;resizable=0;points=[];fontFamily=Helvetica;fontSize=12;" parent="HLH3AIwmKbXc0-JNvHGO-1" vertex="1" connectable="0">
          <mxGeometry x="-0.2971" y="-1" relative="1" as="geometry">
            <mxPoint x="13" y="-1" as="offset" />
          </mxGeometry>
        </mxCell>
        <mxCell id="1ea317790d2ca983-2" value="ASML ������������" style="ellipse;whiteSpace=wrap;html=1;rounded=0;shadow=1;comic=0;labelBackgroundColor=none;strokeWidth=1;fontFamily=Helvetica;fontSize=12;align=center;" parent="1" vertex="1">
          <mxGeometry x="287.5" y="210" width="75" height="50" as="geometry" />
        </mxCell>
        <mxCell id="1ea317790d2ca983-15" value="Liefert fertige SoC" style="edgeStyle=none;rounded=1;html=1;labelBackgroundColor=none;startArrow=none;startFill=0;startSize=5;endArrow=classicThin;endFill=1;endSize=5;jettySize=auto;orthogonalLoop=1;strokeColor=#B3B3B3;strokeWidth=1;fontFamily=Helvetica;fontSize=12;" parent="1" source="1ea317790d2ca983-3" target="1ea317790d2ca983-4" edge="1">
          <mxGeometry relative="1" as="geometry" />
        </mxCell>
        <mxCell id="1ea317790d2ca983-3" value="TSMC ������������" style="ellipse;whiteSpace=wrap;html=1;rounded=0;shadow=1;comic=0;labelBackgroundColor=none;strokeWidth=1;fontFamily=Helvetica;fontSize=12;align=center;" parent="1" vertex="1">
          <mxGeometry x="490" y="210" width="75" height="50" as="geometry" />
        </mxCell>
        <mxCell id="1ea317790d2ca983-16" value="Platine für den Einbau" style="edgeStyle=none;rounded=1;html=1;labelBackgroundColor=none;startArrow=none;startFill=0;startSize=5;endArrow=classicThin;endFill=1;endSize=5;jettySize=auto;orthogonalLoop=1;strokeColor=#B3B3B3;strokeWidth=1;fontFamily=Helvetica;fontSize=12;" parent="1" source="1ea317790d2ca983-4" target="1ea317790d2ca983-5" edge="1">
          <mxGeometry relative="1" as="geometry" />
        </mxCell>
        <mxCell id="1ea317790d2ca983-4" value="Leiterplatten-fertigung" style="ellipse;whiteSpace=wrap;html=1;rounded=0;shadow=1;comic=0;labelBackgroundColor=none;strokeWidth=1;fontFamily=Helvetica;fontSize=12;align=center;" parent="1" vertex="1">
          <mxGeometry x="472.5" y="360" width="110" height="80" as="geometry" />
        </mxCell>
        <mxCell id="1ea317790d2ca983-17" value="relation" style="edgeStyle=none;rounded=1;html=1;labelBackgroundColor=none;startArrow=none;startFill=0;startSize=5;endArrow=classicThin;endFill=1;endSize=5;jettySize=auto;orthogonalLoop=1;strokeColor=#B3B3B3;strokeWidth=1;fontFamily=Helvetica;fontSize=12;" parent="1" source="1ea317790d2ca983-5" target="1ea317790d2ca983-8" edge="1">
          <mxGeometry relative="1" as="geometry" />
        </mxCell>
        <mxCell id="1ea317790d2ca983-5" value="Foxconn ������������" style="ellipse;whiteSpace=wrap;html=1;rounded=0;shadow=1;comic=0;labelBackgroundColor=none;strokeWidth=1;fontFamily=Helvetica;fontSize=12;align=center;" parent="1" vertex="1">
          <mxGeometry x="490" y="520" width="75" height="50" as="geometry" />
        </mxCell>
        <mxCell id="HLH3AIwmKbXc0-JNvHGO-19" value="" style="edgeStyle=none;rounded=0;orthogonalLoop=1;jettySize=auto;html=1;fontFamily=Helvetica;fontSize=12;" parent="1" source="1ea317790d2ca983-8" target="HLH3AIwmKbXc0-JNvHGO-18" edge="1">
          <mxGeometry relative="1" as="geometry" />
        </mxCell>
        <mxCell id="1ea317790d2ca983-8" value="Versandzentren" style="ellipse;whiteSpace=wrap;html=1;rounded=0;shadow=1;comic=0;labelBackgroundColor=none;strokeWidth=1;fontFamily=Helvetica;fontSize=12;align=center;" parent="1" vertex="1">
          <mxGeometry x="477.5" y="610" width="100" height="70" as="geometry" />
        </mxCell>
        <mxCell id="HLH3AIwmKbXc0-JNvHGO-3" style="edgeStyle=orthogonalEdgeStyle;rounded=0;orthogonalLoop=1;jettySize=auto;html=1;entryX=0;entryY=0.5;entryDx=0;entryDy=0;fontFamily=Helvetica;fontSize=12;" parent="1" source="1ea317790d2ca983-9" target="1ea317790d2ca983-2" edge="1">
          <mxGeometry relative="1" as="geometry">
            <Array as="points">
              <mxPoint x="200" y="290" />
              <mxPoint x="200" y="235" />
            </Array>
          </mxGeometry>
        </mxCell>
        <mxCell id="HLH3AIwmKbXc0-JNvHGO-4" value="Liefert EUV Laser" style="edgeLabel;html=1;align=center;verticalAlign=middle;resizable=0;points=[];fontFamily=Helvetica;fontSize=12;" parent="HLH3AIwmKbXc0-JNvHGO-3" vertex="1" connectable="0">
          <mxGeometry x="-0.2126" y="2" relative="1" as="geometry">
            <mxPoint as="offset" />
          </mxGeometry>
        </mxCell>
        <mxCell id="HLH3AIwmKbXc0-JNvHGO-15" style="rounded=0;orthogonalLoop=1;jettySize=auto;html=1;entryX=0;entryY=1;entryDx=0;entryDy=0;exitX=1;exitY=1;exitDx=0;exitDy=0;fontFamily=Helvetica;fontSize=12;" parent="1" source="1ea317790d2ca983-9" target="1ea317790d2ca983-3" edge="1">
          <mxGeometry relative="1" as="geometry">
            <Array as="points" />
          </mxGeometry>
        </mxCell>
        <mxCell id="HLH3AIwmKbXc0-JNvHGO-17" value="Wartung des Lasers" style="edgeLabel;html=1;align=center;verticalAlign=middle;resizable=0;points=[];fontFamily=Helvetica;fontSize=12;" parent="HLH3AIwmKbXc0-JNvHGO-15" vertex="1" connectable="0">
          <mxGeometry x="0.0982" relative="1" as="geometry">
            <mxPoint as="offset" />
          </mxGeometry>
        </mxCell>
        <mxCell id="1ea317790d2ca983-9" value="Trumpf ������������" style="ellipse;whiteSpace=wrap;html=1;rounded=0;shadow=1;comic=0;labelBackgroundColor=none;strokeWidth=1;fontFamily=Helvetica;fontSize=12;align=center;" parent="1" vertex="1">
          <mxGeometry x="70" y="270" width="75" height="50" as="geometry" />
        </mxCell>
        <mxCell id="HLH3AIwmKbXc0-JNvHGO-13" value="" style="edgeStyle=orthogonalEdgeStyle;rounded=0;orthogonalLoop=1;jettySize=auto;html=1;fontFamily=Helvetica;fontSize=12;" parent="1" source="HLH3AIwmKbXc0-JNvHGO-6" target="1ea317790d2ca983-3" edge="1">
          <mxGeometry relative="1" as="geometry" />
        </mxCell>
        <mxCell id="HLH3AIwmKbXc0-JNvHGO-14" value="Chipdesign" style="edgeLabel;html=1;align=center;verticalAlign=middle;resizable=0;points=[];fontFamily=Helvetica;fontSize=12;" parent="HLH3AIwmKbXc0-JNvHGO-13" vertex="1" connectable="0">
          <mxGeometry x="0.29" y="2" relative="1" as="geometry">
            <mxPoint x="17" y="-2" as="offset" />
          </mxGeometry>
        </mxCell>
        <mxCell id="HLH3AIwmKbXc0-JNvHGO-6" value="&lt;div style=&quot;font-size: 12px;&quot;&gt;&lt;font style=&quot;font-size: 12px;&quot;&gt;Apple ������������&lt;br style=&quot;font-size: 12px;&quot;&gt;&lt;/font&gt;&lt;/div&gt;" style="ellipse;whiteSpace=wrap;html=1;rounded=0;shadow=1;comic=0;labelBackgroundColor=none;strokeWidth=1;fontFamily=Helvetica;fontSize=12;align=center;" parent="1" vertex="1">
          <mxGeometry x="668" y="205" width="95" height="60" as="geometry" />
        </mxCell>
        <mxCell id="HLH3AIwmKbXc0-JNvHGO-11" value="" style="edgeStyle=orthogonalEdgeStyle;rounded=0;orthogonalLoop=1;jettySize=auto;html=1;fontFamily=Helvetica;fontSize=12;" parent="1" source="HLH3AIwmKbXc0-JNvHGO-8" target="HLH3AIwmKbXc0-JNvHGO-6" edge="1">
          <mxGeometry relative="1" as="geometry" />
        </mxCell>
        <mxCell id="HLH3AIwmKbXc0-JNvHGO-12" value="Prozessorarchitektur" style="edgeLabel;html=1;align=center;verticalAlign=middle;resizable=0;points=[];fontFamily=Helvetica;fontSize=12;" parent="HLH3AIwmKbXc0-JNvHGO-11" vertex="1" connectable="0">
          <mxGeometry x="-0.13" relative="1" as="geometry">
            <mxPoint as="offset" />
          </mxGeometry>
        </mxCell>
        <mxCell id="HLH3AIwmKbXc0-JNvHGO-8" value="ARM ������������" style="ellipse;whiteSpace=wrap;html=1;fontFamily=Helvetica;fontSize=12;" parent="1" vertex="1">
          <mxGeometry x="680.5" y="80" width="70" height="50" as="geometry" />
        </mxCell>
        <mxCell id="HLH3AIwmKbXc0-JNvHGO-18" value="Endverbraucher" style="ellipse;whiteSpace=wrap;html=1;rounded=0;shadow=1;comic=0;labelBackgroundColor=none;strokeWidth=1;fontFamily=Helvetica;fontSize=12;align=center;" parent="1" vertex="1">
          <mxGeometry x="477.5" y="710" width="100" height="70" as="geometry" />
        </mxCell>
      </root>
    </mxGraphModel>
  </diagram>
</mxfile>
